Coordinates
version=1
nRows=14
nColumns=33
inDegrees=yes

Units are S.I. units (second, meters, Newtons, ...)
Angles are in degrees.

endheader
time	ground_thorax_rot_x	ground_thorax_rot_y	ground_thorax_rot_z	ground_thorax_tx	ground_thorax_ty	ground_thorax_tz	clav_prot_r	clav_elev_r	scapula_abduction_r	scapula_elevation_r	scapula_upward_rot_r	scapula_winging_r	shoulder_elv_r	plane_of_elev_r	axial_rot_r	elbow_flexion_r	pro_sup_r	wrist_flex_r	wrist_dev_r	clav_prot_l	clav_elev_l	scapula_abduction_l	scapula_elevation_l	scapula_upward_rot_l	scapula_winging_l	shoulder_elv_l	plane_of_elev_l	axial_rot_l	elbow_flexion_l	pro_sup_l	wrist_flex_l	wrist_dev_l
      3.49000000	      1.78858003	      8.08050541	     -1.06153357	     -0.18483237	      0.99818243	      0.01566240	    -21.80175509	    -10.66447496	    -30.80133930	     -5.62877425	      5.38930643	      3.70675250	     62.60804928	    -52.20687315	     52.18446204	     83.13560943	     30.51162050	     36.92651769	    -23.93228438	     -4.52138637	     -4.49706284	      6.02052927	     -4.26533243	     -6.22364150	     -2.50008097	     48.33427427	    -46.96519130	    -20.20254060	     74.57358580	     25.68067816	    -26.38307249	    -24.99999983
      3.50000000	      1.73338424	      8.25345194	     -1.12051944	     -0.18493230	      0.99812535	      0.01568732	    -21.94876879	    -10.69032529	    -31.11696805	     -5.60753507	      5.23743815	      3.73510139	     62.63141453	    -51.83057826	     51.87561004	     84.12643703	     29.64512542	     34.67697227	    -22.25799977	     -4.37167622	     -4.58664288	      5.77248441	     -4.23089852	     -6.33469302	     -2.48291749	     48.58894602	    -46.88915268	    -20.12546107	     75.16650131	     24.91180855	    -25.82443843	    -24.99999983
      3.51000000	      1.70068057	      8.28919673	     -1.04764696	     -0.18489250	      0.99812163	      0.01556447	    -21.99073035	    -10.71380701	    -31.12101058	     -5.67333169	      5.35204476	      3.71681089	     62.64824898	    -51.67418320	     51.77531549	     84.69611656	     29.58375811	     34.64738963	    -22.20365896	     -4.38856490	     -4.54490775	      5.78652509	     -4.24109351	     -6.26605033	     -2.46567495	     48.60659824	    -46.81714692	    -20.08819968	     75.59153386	     24.85622260	    -25.82865977	    -24.99999983
      3.52000000	      1.60065354	      8.40739526	     -1.06796714	     -0.18499513	      0.99817606	      0.01561025	    -22.09664072	    -10.79362517	    -31.36883742	     -5.69322293	      5.18174462	      3.77944438	     62.61389594	    -51.34113207	     51.26421362	     85.65655040	     28.72907383	     32.46354661	    -20.26948681	     -4.26678839	     -4.57854472	      5.55327751	     -4.20435000	     -6.24685234	     -2.41598190	     48.84145468	    -46.79464712	    -20.04764740	     76.20354283	     24.31849125	    -25.00486497	    -24.99999983
      3.53000000	      1.57296557	      8.44640550	     -0.97946811	     -0.18495230	      0.99822026	      0.01545243	    -22.13240172	    -10.81419238	    -31.35353936	     -5.76292586	      5.31553878	      3.75628322	     62.64589804	    -51.15890308	     51.16177647	     86.23821481	     28.66103612	     32.41638398	    -20.17155492	     -4.28574842	     -4.54256574	      5.56769356	     -4.20669484	     -6.17218715	     -2.39936968	     48.84032090	    -46.69304713	    -19.98879636	     76.65846141	     24.26186840	    -24.98779490	    -24.99999983
      3.54000000	      1.51260724	      8.49848681	     -1.00443685	     -0.18505298	      0.99827209	      0.01544455	    -22.22126116	    -10.85445742	    -31.53929515	     -5.77336687	      5.22438238	      3.78491150	     62.60800428	    -50.70824476	     50.62081003	     87.26650476	     27.68267469	     29.91338019	    -17.63286268	     -4.19163365	     -4.56494030	      5.38677009	     -4.18019246	     -6.15383125	     -2.35923436	     48.94004610	    -46.60127250	    -19.74810199	     77.28033963	     23.73086106	    -23.84829461	    -24.99999983
      3.55000000	      1.49380890	      8.55851455	     -0.91495762	     -0.18502683	      0.99831555	      0.01523889	    -22.22761123	    -10.88523556	    -31.47567451	     -5.84749340	      5.35069719	      3.76636044	     62.64795738	    -50.49766551	     50.51024585	     87.81523717	     27.59766806	     29.83783437	    -17.49902482	     -4.19265757	     -4.53751516	      5.36038804	     -4.16909077	     -6.06453339	     -2.32891402	     48.94910141	    -46.46775810	    -19.72525405	     77.78504153	     23.67925149	    -23.79673592	    -24.99999983
      3.56000000	      1.38918800	      8.57684104	     -0.99870331	     -0.18512926	      0.99847610	      0.01524706	    -22.28961959	    -11.01948713	    -31.60644511	     -5.94155626	      5.25198745	      3.84955909	     62.42470377	    -50.01908393	     49.79493737	     88.72473629	     26.50619404	     27.37899584	    -14.99342326	     -4.12757290	     -4.56846049	      5.20143495	     -4.10060731	     -5.96611898	     -2.28659775	     49.07044145	    -46.34712172	    -19.44615682	     78.41771976	     23.20471022	    -22.47678905	    -24.99999983
      3.57000000	      1.46746514	      8.62514789	     -0.86347930	     -0.18523592	      0.99842811	      0.01502570	    -22.25099823	    -10.95978001	    -31.54368703	     -5.89062370	      5.27185475	      3.82161758	     62.61130861	    -49.62055945	     49.48290522	     89.52389582	     25.83427563	     25.98402477	    -13.31780201	     -4.06658542	     -4.56314532	      5.08587420	     -4.09919789	     -5.94742308	     -2.25497374	     48.99475015	    -46.20318849	    -19.24365891	     79.02316070	     22.84295448	    -21.33521959	    -24.99999983
      3.58000000	      1.41617133	      8.66876096	     -0.79364670	     -0.18521730	      0.99853523	      0.01478535	    -22.23515511	    -11.07910315	    -31.43034742	     -6.04500112	      5.39503665	      3.85209362	     62.55423956	    -49.32715533	     49.32473940	     89.90480665	     25.71753856	     25.86346187	    -13.18861197	     -4.06161562	     -4.54046536	      5.03667115	     -4.06915999	     -5.82343036	     -2.22120966	     49.03765358	    -46.03139938	    -19.21357313	     79.57162501	     22.79123582	    -21.27124712	    -24.99999983
      3.59000000	      1.20283138	      8.69558731	     -1.03455900	     -0.18527873	      0.99895425	      0.01466574	    -22.30653606	    -11.41403879	    -31.52390026	     -6.33870748	      5.32903722	      4.02370655	     61.84429091	    -48.78295504	     48.29743275	     90.31994351	     24.53577542	     23.73734131	    -11.34378539	     -4.06275543	     -4.56616536	      4.93497176	     -3.93771846	     -5.56299139	     -2.15971370	     49.19910101	    -45.75507100	    -18.96161788	     80.22388358	     22.38401363	    -20.00046607	    -24.99999983
      3.60000000	      1.32487767	      8.75813259	     -0.77730929	     -0.18544613	      0.99867100	      0.01449239	    -22.20544548	    -11.18758469	    -31.33314593	     -6.16534941	      5.45324413	      3.89847240	     61.82918323	    -48.35517740	     47.84502398	     91.07976687	     23.54182577	     22.06844261	     -9.39982006	     -3.97240744	     -4.48135851	      4.76129922	     -3.98706292	     -5.48615499	     -2.08602940	     49.04427478	    -45.58844636	    -18.81847064	     80.82194805	     21.89861231	    -18.43505338	    -24.99999983
      3.61000000	      1.18015588	      8.71885980	     -0.88457760	     -0.18546741	      0.99906624	      0.01425619	    -22.20530370	    -11.52681254	    -31.26431855	     -6.48841063	      5.47082094	      4.06069067	     61.41101062	    -47.82597921	     47.22709150	     91.23146087	     22.98203217	     21.18323278	     -8.57110882	     -3.99539241	     -4.50722145	      4.72686260	     -3.88563648	     -5.29961391	     -2.05547723	     49.08739736	    -45.32144316	    -18.49616559	     81.41812553	     21.61702931	    -17.67848552	    -24.99999983
      3.62000000	      1.18618658	      8.86024205	     -0.81915478	     -0.18560650	      0.99899267	      0.01414893	    -22.17483070	    -11.51295906	    -31.19367840	     -6.48906173	      5.51433616	      4.04775657	     60.99276886	    -47.35878768	     46.39055495	     91.69371797	     21.95231119	     19.57087659	     -7.02612463	     -3.92916546	     -4.44498332	      4.52119989	     -3.83823379	     -5.03919493	     -1.94958882	     49.07111225	    -45.01936847	    -18.51257790	     81.98684522	     21.19311796	    -16.24421709	    -24.99999983
